<?xml version="1.0" encoding="utf-8"?>
<svg width="80px" viewbox="0 0 495 241" version="1.1" xmlns:xlink="http://www.w3.org/1999/xlink" xmlns="http://www.w3.org/2000/svg">
  <g id="Group">
    <path d="M20.1232 1.05328C11.5232 2.75327 4.22325 8.95328 1.12325 17.2533C0.523247 18.8533 0.0232468 25.4533 0.0232468 31.9533C0.0232468 45.3533 -0.876751 43.9533 8.52325 45.4533C17.0232 46.8533 26.6232 54.1533 31.3232 62.7533C33.3232 66.4533 36.0232 77.1533 42.0232 104.353C46.3232 124.553 50.2233 141.453 50.5232 141.953C50.9232 142.553 79.5233 142.953 130.223 142.953L209.323 142.953L208.623 139.153C205.023 118.053 208.123 88.7533 216.523 66.6533C225.323 43.2533 243.223 18.7533 261.823 4.65326C264.623 2.55328 267.023 0.553284 267.023 0.353271C267.023 -0.446716 24.3232 0.253265 20.1232 1.05328L20.1232 1.05328Z" transform="translate(24.976837 0)" id="Shape" fill="#0000FF" fill-rule="evenodd" stroke="none" />
    <path d="M102.15 0.758469C57.05 6.95845 19.75 38.1585 5.25 81.7585C-1.75 102.558 -1.75 132.758 5.25 153.558C18.85 194.558 52.35 224.358 94.55 233.258C106.15 235.758 128.95 235.758 140.55 233.258C187.75 223.358 223.25 187.758 233.25 140.558C235.65 129.058 235.65 106.258 233.15 94.6585C224.25 52.4584 194.45 18.9584 153.55 5.35844C140.05 0.858444 116.55 -1.24153 102.15 0.758469L102.15 0.758469Z" transform="translate(259.4501 0.29483032)" id="Shape" fill="#0000FF" fill-rule="evenodd" stroke="none" />
    <path d="M6.2001 2C-0.099905 5.79999 9.53674e-05 5 9.53674e-05 68.3C9.53674e-05 133.7 -0.099905 132.7 7.5001 140.3C13.1001 146 18.9001 148 29.2001 148L37.0001 148L37.0001 160.5L37.0001 173L56.0001 173L75.0001 173L75.0001 160.5L75.0001 148L172.5 148L270 148L264.9 141.7C262.2 138.3 258.2 133 256.2 130C252.3 124.1 243.2 106.6 241.3 101.2L240.2 98L148.1 98C97.4001 98 56.0001 97.7 56.0001 97.4C56.0001 94 36.3001 6.89999 35.1001 5.10001C32.8001 1.39999 28.0001 0 18.3001 0C11.2001 0 8.80009 0.399994 6.2001 2L6.2001 2Z" transform="translate(0 67.95328)" id="Shape" fill="#0000FF" fill-rule="evenodd" stroke="none" />
  </g>
</svg>